<svg viewBox="0 0 640 465" fill="none" xmlns="http://www.w3.org/2000/svg">
  <g id="Frame 29">
    <g id="Frame_39">
      <rect x="400" y="324" width="117" height="118" rx="2" fill="#B78DE6" />
      <animateTransform attributeName="transform" type="translate" values="0 0;
                          1.8 -2.3;
                          -2.5 1.7;
                          0.9 3.1;
                          -3.2 -0.8;
                          2.4 1.5;
                          -1.7 -2.9;
                          3.1 0.4;
                          -0.5 2.7;
                          0 0" keyTimes="0;0.1;0.2;0.3;0.4;0.5;0.6;0.7;0.8;1" begin="2.5s" dur="20s" fill="freeze"
        calcMode="linear" repeatCount="indefinite" additive="sum" />
    </g>
    <g id="Frame_45">
      <rect x="72" y="66" width="67" height="68" rx="2" fill="#B78DE6" />
      <animateTransform attributeName="transform" type="translate" values="0 0;
                          0.5 -1.2;
                          -1.8 2.3;
                          2.1 -0.7;
                          -0.4 3.1;
                          1.5 1.9;
                          -2.3 -1.5;
                          3.2 0.8;
                          -1.7 -2.9;
                          0 0" keyTimes="0;0.1;0.2;0.3;0.4;0.5;0.6;0.7;0.8;1" begin="2.5s" dur="20s" fill="freeze"
        calcMode="linear" repeatCount="indefinite" />
    </g>
    <g id="Frame_41">
      <rect x="491" y="49" width="128" height="59" rx="2" fill="#B78DE6" />
      <animateTransform attributeName="transform" type="translate" values="0 0;
                          -2.1 1.3;
                          1.8 -0.9;
                          -0.7 2.4;
                          3.1 -1.5;
                          -1.2 -2.3;
                          2.5 0.6;
                          -3.2 1.1;
                          0.9 -2.7;
                          0 0" keyTimes="0;0.1;0.2;0.3;0.4;0.5;0.6;0.7;0.8;1" begin="2.5s" dur="20s" fill="freeze"
        calcMode="linear" repeatCount="indefinite" additive="sum" />
    </g>
    <path id="Rectangle_33"
      d="M372.5 82H551C556.523 82 561 86.4772 561 92V149.5M457 412H205C199.477 412 195 407.523 195 402V361.5"
      stroke="url(#paint0_linear_268_200)" stroke-dasharray="4 4" stroke-dashoffset="400" stroke-linecap="round">
      <animate attributeName="stroke-dashoffset" from="400" to="0" dur="25s" begin="0.5s" fill="freeze"
        repeatCount="indefinite" calcMode="linear" />
    </path>
    <g id="Browser window" filter="url(#filter0_d_268_200)">
      <rect id="Window nav pannel" x="100" y="93" width="440" height="10" fill="url(#paint1_linear_268_200)"></rect>
      <g id="Window nav buttons">
        <circle id="Ellipse 1" cx="109" cy="98" r="2" fill="white"></circle>
        <circle id="Ellipse 2" cx="118" cy="98" r="2" fill="white"></circle>
        <circle id="Ellipse 3" cx="127" cy="98" r="2" fill="white"></circle>
      </g>
      <g id="Web page">
        <rect width="440" height="270" transform="translate(100 103)" fill="white"></rect>
        <g id="Frame 30" filter="url(#filter1_d_268_200)" transform="translate(-200, 0)" opacity="0"
          transform-origin="169.5 195">
          <animateTransform attributeName="transform" type="translate" values="-200 0; 0 0" keyTimes="0;1" begin="0.5s"
            dur="0.5s" fill="freeze" calcMode="spline" keySplines="0.42 0 1 1" />
          <animateTransform attributeName="transform" type="scale" values="1;1.05;1" keyTimes="0;0.5;1" additive="sum"
            begin="1.5s" dur="1s" fill="freeze" calcMode="spline" keySplines="0.42 0 1 1; 0 0 0.58 1" />
          <animate attributeName="opacity" values="0;1" keyTimes="0;1" begin="0.5s" dur="0.1s" fill="freeze" />
          <rect x="127" y="148" width="85" height="94" rx="2" fill="#CA9CFE"></rect>
          <g id="Text" clip-path="url(#clip0_268_200)">
            <g id="FileBarListItem">
              <rect id="Rectangle 30" x="137" y="155" width="26" height="3" fill="white"></rect>
            </g>
            <g id="FileBarListItem_2">
              <rect id="Rectangle 30_2" x="137" y="160" width="65" height="3" fill="white"></rect>
            </g>
            <g id="FileBarListItem_3">
              <rect id="Rectangle 30_3" x="137" y="165" width="65" height="3" fill="white"></rect>
            </g>
          </g>
          <path id="Vector"
            d="M137 183.125C137 178.644 140.644 175 145.125 175H193.875C198.356 175 202 178.644 202 183.125V223.75C202 228.231 198.356 231.875 193.875 231.875H145.125C140.644 231.875 137 228.231 137 223.75V183.125ZM178.107 196.646C177.536 195.808 176.597 195.312 175.594 195.312C174.591 195.312 173.639 195.808 173.08 196.646L162.035 212.845L158.671 208.643C158.087 207.919 157.211 207.5 156.297 207.5C155.383 207.5 154.494 207.919 153.923 208.643L145.798 218.799C145.062 219.713 144.922 220.97 145.43 222.023C145.938 223.077 147.004 223.75 148.172 223.75H160.359H164.422H190.828C191.958 223.75 192.999 223.128 193.52 222.125C194.04 221.122 193.977 219.916 193.342 218.989L178.107 196.646ZM151.219 195.312C152.835 195.312 154.385 194.67 155.528 193.528C156.67 192.385 157.312 190.835 157.312 189.219C157.312 187.603 156.67 186.053 155.528 184.91C154.385 183.767 152.835 183.125 151.219 183.125C149.603 183.125 148.053 183.767 146.91 184.91C145.767 186.053 145.125 187.603 145.125 189.219C145.125 190.835 145.767 192.385 146.91 193.528C148.053 194.67 149.603 195.312 151.219 195.312Z"
            fill="white"></path>
        </g>
        <g id="user card" filter="url(#filter2_d_268_200)" opacity="0">
          <animate attributeName="opacity" values="0;1" keyTimes="0;1" begin="0s" dur="0.3s" fill="freeze"
            calcMode="spline" keySplines="0.42 0 1 1" />
          <rect x="231" y="148" width="228" height="132" rx="2" fill="white"></rect>
          <rect x="231.5" y="148.5" width="227" height="131" rx="1.5" stroke="#CA9CFE"></rect>
          <g id="Frame 32">
            <rect x="247" y="164" width="62" height="74" rx="2" fill="#CA9CFE"></rect>
            <g id="user-solid 1" clip-path="url(#clip1_268_200)">
              <path id="Vector_2"
                d="M278 200.5C281.789 200.5 285.422 198.999 288.102 196.326C290.781 193.654 292.286 190.029 292.286 186.25C292.286 182.471 290.781 178.846 288.102 176.174C285.422 173.501 281.789 172 278 172C274.211 172 270.578 173.501 267.898 176.174C265.219 178.846 263.714 182.471 263.714 186.25C263.714 190.029 265.219 193.654 267.898 196.326C270.578 198.999 274.211 200.5 278 200.5ZM272.9 205.844C261.906 205.844 253 214.728 253 225.694C253 227.519 254.484 229 256.315 229H299.685C301.516 229 303 227.519 303 225.694C303 214.728 294.094 205.844 283.1 205.844H272.9Z"
                fill="white"></path>
            </g>
          </g>
          <g id="Frame 31">
            <g id="Text_2" clip-path="url(#clip2_268_200)">
              <g id="FileBarListItem_4">
                <rect id="Rectangle 30_4" x="325" y="165" width="26" height="3" fill="#CA9CFE"></rect>
              </g>
              <g id="FileBarListItem_5">
                <rect id="Rectangle 30_5" x="325" y="170" width="99" height="3" fill="#CA9CFE"></rect>
              </g>
              <g id="FileBarListItem_6">
                <rect id="Rectangle 30_6" x="325" y="175" width="99" height="3" fill="#CA9CFE"></rect>
              </g>
            </g>
            <g id="Text_3" clip-path="url(#clip3_268_200)">
              <g id="FileBarListItem_7">
                <rect id="Rectangle 30_7" x="325" y="183" width="99" height="3" fill="#CA9CFE"></rect>
              </g>
              <g id="FileBarListItem_8">
                <rect id="Rectangle 30_8" x="325" y="188" width="99" height="3" fill="#CA9CFE"></rect>
              </g>
              <g id="FileBarListItem_9">
                <rect id="Rectangle 30_9" x="325" y="193" width="47" height="3" fill="#CA9CFE"></rect>
              </g>
            </g>
            <g id="Text_4" clip-path="url(#clip4_268_200)">
              <g id="FileBarListItem_10">
                <rect id="Rectangle 30_10" x="325" y="201" width="99" height="3" fill="#CA9CFE"></rect>
              </g>
              <g id="FileBarListItem_11">
                <rect id="Rectangle 30_11" x="325" y="206" width="99" height="3" fill="#CA9CFE"></rect>
              </g>
              <g id="FileBarListItem_12">
                <rect id="Rectangle 30_12" x="325" y="211" width="47" height="3" fill="#CA9CFE"></rect>
              </g>
            </g>
            <rect id="Rectangle 36" x="325" y="229" width="26" height="9" rx="4.5" fill="#CA9CFE"></rect>
          </g>
        </g>
        <g id="Frame 33" filter="url(#filter3_d_268_200)" opacity="0">
          <animate attributeName="opacity" values="0;1" keyTimes="0;1" begin="0.2s" dur="0.2s" fill="freeze"
            calcMode="spline" keySplines="0.42 0 1 1" />
          <rect x="231" y="293" width="228" height="30" rx="2" fill="#CA9CFE"></rect>
          <path id="Vector_3"
            d="M241 301.571C241 300.153 242.153 299 243.571 299H259C260.418 299 261.571 300.153 261.571 301.571V314.429C261.571 315.847 260.418 317 259 317H243.571C242.153 317 241 315.847 241 314.429V301.571ZM254.01 305.85C253.829 305.585 253.532 305.429 253.214 305.429C252.897 305.429 252.596 305.585 252.419 305.85L248.923 310.977L247.858 309.647C247.674 309.418 247.396 309.286 247.107 309.286C246.818 309.286 246.537 309.418 246.356 309.647L243.784 312.862C243.551 313.151 243.507 313.549 243.668 313.882C243.829 314.216 244.166 314.429 244.536 314.429H248.393H249.679H258.036C258.393 314.429 258.723 314.232 258.888 313.914C259.052 313.597 259.032 313.215 258.831 312.922L254.01 305.85ZM245.5 305.429C246.011 305.429 246.502 305.225 246.864 304.864C247.225 304.502 247.429 304.011 247.429 303.5C247.429 302.989 247.225 302.498 246.864 302.136C246.502 301.775 246.011 301.571 245.5 301.571C244.989 301.571 244.498 301.775 244.136 302.136C243.775 302.498 243.571 302.989 243.571 303.5C243.571 304.011 243.775 304.502 244.136 304.864C244.498 305.225 244.989 305.429 245.5 305.429Z"
            fill="white"></path>
          <g id="Text_5" clip-path="url(#clip5_268_200)">
            <g id="FileBarListItem_13">
              <rect id="Rectangle 30_13" x="267" y="300" width="26" height="3" fill="white"></rect>
            </g>
            <g id="FileBarListItem_14" clip-path="url(#clip6_268_200)">
              <rect id="Rectangle 30_14" x="267" y="305" width="99" height="3" fill="white"></rect>
            </g>
            <g id="FileBarListItem_15" clip-path="url(#clip7_268_200)">
              <rect id="Rectangle 30_15" x="267" y="310" width="99" height="3" fill="white"></rect>
            </g>
          </g>
        </g>
        <g id="Frame 34" filter="url(#filter4_d_268_200)" opacity="0">
          <animate attributeName="opacity" values="0;1" keyTimes="0;1" begin="0.3s" dur="0.2s" fill="freeze"
            calcMode="spline" keySplines="0.42 0 1 1" />
          <rect x="231" y="333" width="228" height="30" rx="2" fill="white"></rect>
          <rect x="231.5" y="333.5" width="227" height="29" rx="1.5" stroke="#CA9CFE"></rect>
          <path id="Vector_4"
            d="M241 341.571C241 340.153 242.153 339 243.571 339H259C260.418 339 261.571 340.153 261.571 341.571V354.429C261.571 355.847 260.418 357 259 357H243.571C242.153 357 241 355.847 241 354.429V341.571ZM254.01 345.85C253.829 345.585 253.532 345.429 253.214 345.429C252.897 345.429 252.596 345.585 252.419 345.85L248.923 350.977L247.858 349.647C247.674 349.418 247.396 349.286 247.107 349.286C246.818 349.286 246.537 349.418 246.356 349.647L243.784 352.862C243.551 353.151 243.507 353.549 243.668 353.882C243.829 354.216 244.166 354.429 244.536 354.429H248.393H249.679H258.036C258.393 354.429 258.723 354.232 258.888 353.914C259.052 353.597 259.032 353.215 258.831 352.922L254.01 345.85ZM245.5 345.429C246.011 345.429 246.502 345.225 246.864 344.864C247.225 344.502 247.429 344.011 247.429 343.5C247.429 342.989 247.225 342.498 246.864 342.136C246.502 341.775 246.011 341.571 245.5 341.571C244.989 341.571 244.498 341.775 244.136 342.136C243.775 342.498 243.571 342.989 243.571 343.5C243.571 344.011 243.775 344.502 244.136 344.864C244.498 345.225 244.989 345.429 245.5 345.429Z"
            fill="#CA9CFE"></path>
          <g id="Text_6" clip-path="url(#clip8_268_200)">
            <g id="FileBarListItem_16">
              <rect id="Rectangle 30_16" x="267" y="340" width="26" height="3" fill="#CA9CFE"></rect>
            </g>
            <g id="FileBarListItem_17" clip-path="url(#clip9_268_200)">
              <rect id="Rectangle 30_17" x="267" y="345" width="99" height="3" fill="#CA9CFE"></rect>
            </g>
            <g id="FileBarListItem_18" clip-path="url(#clip10_268_200)">
              <rect id="Rectangle 30_18" x="267" y="350" width="99" height="3" fill="#CA9CFE"></rect>
            </g>
          </g>
        </g>
      </g>
    </g>
    <g id="Frame 35" filter="url(#filter5_d_268_200)" transform="translate(0, 200)" opacity="0">
      <animateTransform attributeName="transform" type="translate" values="0 200; 0 0" keyTimes="0;1" begin="0.5s"
        dur="0.5s" fill="freeze" calcMode="spline" keySplines="0.42 0 1 1" />
      <animate attributeName="opacity" values="0;1" keyTimes="0;1" begin="0.5s" dur="0.1s" fill="freeze" />
      <rect x="61" y="279" width="122" height="70" rx="2" fill="white"></rect>
      <rect x="61.5" y="279.5" width="121" height="69" rx="1.5" stroke="#CA9CFE"></rect>
      <g id="Text_7" clip-path="url(#clip11_268_200)">
        <g id="FileBarListItem_19">
          <rect id="Rectangle 30_19" x="105" y="290" width="34" height="5" fill="#CA9CFE"></rect>
        </g>
        <g id="FileBarListItem_20">
          <rect id="Rectangle 30_20" x="75.5" y="301" width="93" height="3" fill="#CA9CFE"></rect>
        </g>
        <g id="FileBarListItem_21">
          <rect id="Rectangle 30_21" x="80.5" y="306" width="83" height="3" fill="#CA9CFE"></rect>
        </g>
      </g>
      <rect id="Rectangle 36_2" x="109" y="325" width="26" height="9" rx="4.5" fill="#CA9CFE"></rect>
    </g>
    <g id="Frame 36" filter="url(#filter6_d_268_200)" transform="translate(0, 200)" opacity="0">
      <animateTransform attributeName="transform" type="translate" values="0 200; 0 0" keyTimes="0;1" begin="0.7s"
        dur="0.3s" fill="freeze" calcMode="spline" keySplines="0.42 0 1 1" />
      <animate attributeName="opacity" values="0;1" keyTimes="0;1" begin="0.5s" dur="0.1s" fill="freeze" />
      <rect x="61" y="364" width="122" height="70" rx="2" fill="#CA9CFE"></rect>
      <g id="Text_8" clip-path="url(#clip12_268_200)">
        <g id="FileBarListItem_22">
          <rect id="Rectangle 30_22" x="105" y="375" width="34" height="5" fill="white"></rect>
        </g>
        <g id="FileBarListItem_23">
          <rect id="Rectangle 30_23" x="75.5" y="386" width="93" height="3" fill="white"></rect>
        </g>
        <g id="FileBarListItem_24">
          <rect id="Rectangle 30_24" x="80.5" y="391" width="83" height="3" fill="white"></rect>
        </g>
      </g>
      <rect id="Rectangle 36_3" x="109" y="410" width="26" height="9" rx="4.5" fill="white"></rect>
    </g>
    <g id="Frame 37" filter="url(#filter7_d_268_200)" transform="translate(200, 0)" opacity="0">
      <animateTransform attributeName="transform" type="translate" values="200 0; 0 0" keyTimes="0;1" begin="0.7s"
        dur="0.3s" fill="freeze" calcMode="spline" keySplines="0.42 0 1 1" />
      <animate attributeName="opacity" values="0;1" keyTimes="0;1" begin="0.5s" dur="0.1s" fill="freeze" />
      <rect x="497" y="256" width="85" height="96" rx="2" fill="white"></rect>
      <rect x="497.5" y="256.5" width="84" height="95" rx="1.5" stroke="#CA9CFE"></rect>
      <g id="Group 39">
        <path id="Vector_5"
          d="M504.714 262C503.769 262 503 262.769 503 263.714V272.286C503 273.231 503.769 274 504.714 274H513.286C514.231 274 515 273.231 515 272.286V263.714C515 262.769 514.231 262 513.286 262H504.714ZM512.027 266.741L508.598 270.17C508.346 270.421 507.939 270.421 507.69 270.17L505.976 268.455C505.724 268.204 505.724 267.796 505.976 267.547C506.228 267.298 506.635 267.296 506.884 267.547L508.143 268.806L511.116 265.83C511.368 265.579 511.775 265.579 512.024 265.83C512.273 266.082 512.276 266.489 512.024 266.738L512.027 266.741Z"
          fill="#CA9CFE"></path>
        <g id="Text_9">
          <g id="FileBarListItem_25">
            <rect id="Rectangle 30_25" x="521" y="263" width="26" height="3" fill="#CA9CFE"></rect>
          </g>
          <g id="FileBarListItem_26">
            <rect id="Rectangle 30_26" x="521" y="268" width="55" height="3" fill="#CA9CFE"></rect>
          </g>
        </g>
      </g>
      <g id="Group 40">
        <path id="Vector_6"
          d="M504.714 280C503.769 280 503 280.769 503 281.714V290.286C503 291.231 503.769 292 504.714 292H513.286C514.231 292 515 291.231 515 290.286V281.714C515 280.769 514.231 280 513.286 280H504.714ZM512.027 284.741L508.598 288.17C508.346 288.421 507.939 288.421 507.69 288.17L505.976 286.455C505.724 286.204 505.724 285.796 505.976 285.547C506.228 285.298 506.635 285.296 506.884 285.547L508.143 286.806L511.116 283.83C511.368 283.579 511.775 283.579 512.024 283.83C512.273 284.082 512.276 284.489 512.024 284.738L512.027 284.741Z"
          fill="#CA9CFE"></path>
        <g id="Text_10">
          <g id="FileBarListItem_27">
            <rect id="Rectangle 30_27" x="521" y="281" width="26" height="3" fill="#CA9CFE"></rect>
          </g>
          <g id="FileBarListItem_28">
            <rect id="Rectangle 30_28" x="521" y="286" width="55" height="3" fill="#CA9CFE"></rect>
          </g>
        </g>
      </g>
      <g id="Group 41">
        <path id="Vector_7"
          d="M504.714 298C503.769 298 503 298.769 503 299.714V308.286C503 309.231 503.769 310 504.714 310H513.286C514.231 310 515 309.231 515 308.286V299.714C515 298.769 514.231 298 513.286 298H504.714ZM512.027 302.741L508.598 306.17C508.346 306.421 507.939 306.421 507.69 306.17L505.976 304.455C505.724 304.204 505.724 303.796 505.976 303.547C506.228 303.298 506.635 303.296 506.884 303.547L508.143 304.806L511.116 301.83C511.368 301.579 511.775 301.579 512.024 301.83C512.273 302.082 512.276 302.489 512.024 302.738L512.027 302.741Z"
          fill="#CA9CFE"></path>
        <g id="Text_11">
          <g id="FileBarListItem_29">
            <rect id="Rectangle 30_29" x="521" y="299" width="26" height="3" fill="#CA9CFE"></rect>
          </g>
          <g id="FileBarListItem_30">
            <rect id="Rectangle 30_30" x="521" y="304" width="55" height="3" fill="#CA9CFE"></rect>
          </g>
        </g>
      </g>
      <g id="Group 42">
        <path id="Vector_8"
          d="M504.714 316C503.769 316 503 316.769 503 317.714V326.286C503 327.231 503.769 328 504.714 328H513.286C514.231 328 515 327.231 515 326.286V317.714C515 316.769 514.231 316 513.286 316H504.714ZM512.027 320.741L508.598 324.17C508.346 324.421 507.939 324.421 507.69 324.17L505.976 322.455C505.724 322.204 505.724 321.796 505.976 321.547C506.228 321.298 506.635 321.296 506.884 321.547L508.143 322.806L511.116 319.83C511.368 319.579 511.775 319.579 512.024 319.83C512.273 320.082 512.276 320.489 512.024 320.738L512.027 320.741Z"
          fill="#CA9CFE"></path>
        <g id="Text_12">
          <g id="FileBarListItem_31">
            <rect id="Rectangle 30_31" x="521" y="317" width="26" height="3" fill="#CA9CFE"></rect>
          </g>
          <g id="FileBarListItem_32">
            <rect id="Rectangle 30_32" x="521" y="322" width="55" height="3" fill="#CA9CFE"></rect>
          </g>
        </g>
      </g>
      <g id="Group 43">
        <path id="Vector_9"
          d="M504.714 334C503.769 334 503 334.769 503 335.714V344.286C503 345.231 503.769 346 504.714 346H513.286C514.231 346 515 345.231 515 344.286V335.714C515 334.769 514.231 334 513.286 334H504.714ZM512.027 338.741L508.598 342.17C508.346 342.421 507.939 342.421 507.69 342.17L505.976 340.455C505.724 340.204 505.724 339.796 505.976 339.547C506.228 339.298 506.635 339.296 506.884 339.547L508.143 340.806L511.116 337.83C511.368 337.579 511.775 337.579 512.024 337.83C512.273 338.082 512.276 338.489 512.024 338.738L512.027 338.741Z"
          fill="#CA9CFE"></path>
        <g id="Text_13">
          <g id="FileBarListItem_33">
            <rect id="Rectangle 30_33" x="521" y="335" width="26" height="3" fill="#CA9CFE"></rect>
          </g>
          <g id="FileBarListItem_34">
            <rect id="Rectangle 30_34" x="521" y="340" width="55" height="3" fill="#CA9CFE"></rect>
          </g>
        </g>
      </g>
    </g>
    <g id="Frame 38" filter="url(#filter8_d_268_200)" transform="translate(200, 0)" opacity="0">
      <animateTransform attributeName="transform" type="translate" values="200 0; 0 0" keyTimes="0;1" begin="0.5s"
        dur="0.5s" fill="freeze" calcMode="spline" keySplines="0.42 0 1 1" />
      <animate attributeName="opacity" values="0;1" keyTimes="0;1" begin="0.5s" dur="0.1s" fill="freeze" />
      <rect x="497" y="148" width="85" height="96" rx="2" fill="#CA9CFE"></rect>
      <g id="Group 39_2">
        <path id="Vector_10"
          d="M504.714 154C503.769 154 503 154.769 503 155.714V164.286C503 165.231 503.769 166 504.714 166H513.286C514.231 166 515 165.231 515 164.286V155.714C515 154.769 514.231 154 513.286 154H504.714ZM512.027 158.741L508.598 162.17C508.346 162.421 507.939 162.421 507.69 162.17L505.976 160.455C505.724 160.204 505.724 159.796 505.976 159.547C506.228 159.298 506.635 159.296 506.884 159.547L508.143 160.806L511.116 157.83C511.368 157.579 511.775 157.579 512.024 157.83C512.273 158.082 512.276 158.489 512.024 158.738L512.027 158.741Z"
          fill="white"></path>
        <g id="Text_14">
          <g id="FileBarListItem_35">
            <rect id="Rectangle 30_35" x="521" y="155" width="26" height="3" fill="white"></rect>
          </g>
          <g id="FileBarListItem_36">
            <rect id="Rectangle 30_36" x="521" y="160" width="55" height="3" fill="white"></rect>
          </g>
        </g>
      </g>
      <g id="Group 40_2">
        <path id="Vector_11"
          d="M504.714 172C503.769 172 503 172.769 503 173.714V182.286C503 183.231 503.769 184 504.714 184H513.286C514.231 184 515 183.231 515 182.286V173.714C515 172.769 514.231 172 513.286 172H504.714ZM512.027 176.741L508.598 180.17C508.346 180.421 507.939 180.421 507.69 180.17L505.976 178.455C505.724 178.204 505.724 177.796 505.976 177.547C506.228 177.298 506.635 177.296 506.884 177.547L508.143 178.806L511.116 175.83C511.368 175.579 511.775 175.579 512.024 175.83C512.273 176.082 512.276 176.489 512.024 176.738L512.027 176.741Z"
          fill="white"></path>
        <g id="Text_15">
          <g id="FileBarListItem_37">
            <rect id="Rectangle 30_37" x="521" y="173" width="26" height="3" fill="white"></rect>
          </g>
          <g id="FileBarListItem_38">
            <rect id="Rectangle 30_38" x="521" y="178" width="55" height="3" fill="white"></rect>
          </g>
        </g>
      </g>
      <g id="Group 41_2">
        <path id="Vector_12"
          d="M504.714 190C503.769 190 503 190.769 503 191.714V200.286C503 201.231 503.769 202 504.714 202H513.286C514.231 202 515 201.231 515 200.286V191.714C515 190.769 514.231 190 513.286 190H504.714ZM512.027 194.741L508.598 198.17C508.346 198.421 507.939 198.421 507.69 198.17L505.976 196.455C505.724 196.204 505.724 195.796 505.976 195.547C506.228 195.298 506.635 195.296 506.884 195.547L508.143 196.806L511.116 193.83C511.368 193.579 511.775 193.579 512.024 193.83C512.273 194.082 512.276 194.489 512.024 194.738L512.027 194.741Z"
          fill="white"></path>
        <g id="Text_16">
          <g id="FileBarListItem_39">
            <rect id="Rectangle 30_39" x="521" y="191" width="26" height="3" fill="white"></rect>
          </g>
          <g id="FileBarListItem_40">
            <rect id="Rectangle 30_40" x="521" y="196" width="55" height="3" fill="white"></rect>
          </g>
        </g>
      </g>
      <g id="Group 42_2">
        <path id="Vector_13"
          d="M504.714 208C503.769 208 503 208.769 503 209.714V218.286C503 219.231 503.769 220 504.714 220H513.286C514.231 220 515 219.231 515 218.286V209.714C515 208.769 514.231 208 513.286 208H504.714ZM512.027 212.741L508.598 216.17C508.346 216.421 507.939 216.421 507.69 216.17L505.976 214.455C505.724 214.204 505.724 213.796 505.976 213.547C506.228 213.298 506.635 213.296 506.884 213.547L508.143 214.806L511.116 211.83C511.368 211.579 511.775 211.579 512.024 211.83C512.273 212.082 512.276 212.489 512.024 212.738L512.027 212.741Z"
          fill="white"></path>
        <g id="Text_17">
          <g id="FileBarListItem_41">
            <rect id="Rectangle 30_41" x="521" y="209" width="26" height="3" fill="white"></rect>
          </g>
          <g id="FileBarListItem_42">
            <rect id="Rectangle 30_42" x="521" y="214" width="55" height="3" fill="white"></rect>
          </g>
        </g>
      </g>
      <g id="Group 43_2">
        <path id="Vector_14"
          d="M504.714 226C503.769 226 503 226.769 503 227.714V236.286C503 237.231 503.769 238 504.714 238H513.286C514.231 238 515 237.231 515 236.286V227.714C515 226.769 514.231 226 513.286 226H504.714ZM512.027 230.741L508.598 234.17C508.346 234.421 507.939 234.421 507.69 234.17L505.976 232.455C505.724 232.204 505.724 231.796 505.976 231.547C506.228 231.298 506.635 231.296 506.884 231.547L508.143 232.806L511.116 229.83C511.368 229.579 511.775 229.579 512.024 229.83C512.273 230.082 512.276 230.489 512.024 230.738L512.027 230.741Z"
          fill="white"></path>
        <g id="Text_18">
          <g id="FileBarListItem_43">
            <rect id="Rectangle 30_43" x="521" y="227" width="26" height="3" fill="white"></rect>
          </g>
          <g id="FileBarListItem_44">
            <rect id="Rectangle 30_44" x="521" y="232" width="55" height="3" fill="white"></rect>
          </g>
        </g>
      </g>
    </g>
    <g id="Frame 40" filter="url(#filter9_d_268_200)">
      <rect x="61" y="112" width="24" height="133" rx="2" fill="white"></rect>
      <rect x="61.5" y="112.5" width="23" height="132" rx="1.5" stroke="#CA9CFE"></rect>
      <rect id="Rectangle 30_45" x="72" y="236" width="115" height="2" transform="rotate(-90 72 236)" fill="#E6D0FF">
      </rect>
      <g id="Frame 46">
        <animateTransform attributeName="transform" type="translate" values="0 0; 0 -30; 0 0" keyTimes="0;0.5;1"
          begin="1.5s" dur="1.1s" fill="freeze" calcMode="spline" keySplines="0.42 0 1 1; 0 0 0.58 1" />
        <rect id="Rectangle 31" x="69" y="188" width="8" height="8" rx="2" fill="#CA9CFE"></rect>
      </g>
    </g>
    <g id="Frame 42" filter="url(#filter10_d_268_200)" transform-origin="208 99">
      <animateTransform attributeName="transform" type="scale" values="1;1.08;1" keyTimes="0;0.3;1" begin="2.6s"
        dur="0.2s" fill="freeze" calcMode="spline" keySplines="0.42 0 1 1; 0 0 0.58 1" additive="sum" />
      <rect x="183" y="74" width="50" height="50" rx="2" fill="white"></rect>
      <rect x="183.5" y="74.5" width="49" height="49" rx="1.5" stroke="#CA9CFE"></rect>
      <circle id="Ellipse 4" cx="208" cy="99" r="9" fill="#CA9CFE"></circle>
    </g>
    <g id="Frame 43" filter="url(#filter11_d_268_200)" transform-origin="269 99">
      <animateTransform attributeName="transform" type="scale" values="1;1.08;1" keyTimes="0;0.3;1" begin="2.9s"
        dur="0.2s" fill="freeze" calcMode="spline" keySplines="0.42 0 1 1; 0 0 0.58 1" />
      <rect x="244" y="74" width="50" height="50" rx="2" fill="white"></rect>
      <rect x="244.5" y="74.5" width="49" height="49" rx="1.5" stroke="#CA9CFE"></rect>
      <circle id="Ellipse 4_2" cx="269" cy="99" r="9" fill="#CA9CFE"></circle>
    </g>
    <g id="Frame 44" filter="url(#filter12_d_268_200)" transform-origin="330 99">
      <animateTransform attributeName="transform" type="scale" values="1;1.08;1" keyTimes="0;0.3;1" begin="3.2s"
        dur="0.2s" fill="freeze" calcMode="spline" keySplines="0.42 0 1 1; 0 0 0.58 1" />
      <rect x="305" y="74" width="50" height="50" rx="2" fill="white"></rect>
      <rect x="305.5" y="74.5" width="49" height="49" rx="1.5" stroke="#CA9CFE"></rect>
      <circle id="Ellipse 4_3" cx="330" cy="99" r="9" fill="#CA9CFE"></circle>
    </g>
  </g>
  <defs>
    <filter id="filter0_d_268_200" x="96" y="93" width="448" height="288" filterUnits="userSpaceOnUse"
      color-interpolation-filters="sRGB">
      <feFlood flood-opacity="0" result="BackgroundImageFix"></feFlood>
      <feColorMatrix in="SourceAlpha" type="matrix" values="0 0 0 0 0 0 0 0 0 0 0 0 0 0 0 0 0 0 127 0"
        result="hardAlpha"></feColorMatrix>
      <feOffset dy="4"></feOffset>
      <feGaussianBlur stdDeviation="2"></feGaussianBlur>
      <feComposite in2="hardAlpha" operator="out"></feComposite>
      <feColorMatrix type="matrix" values="0 0 0 0 0 0 0 0 0 0 0 0 0 0 0 0 0 0 0.25 0"></feColorMatrix>
      <feBlend mode="normal" in2="BackgroundImageFix" result="effect1_dropShadow_268_200"></feBlend>
      <feBlend mode="normal" in="SourceGraphic" in2="effect1_dropShadow_268_200" result="shape"></feBlend>
    </filter>
    <filter id="filter1_d_268_200" x="123" y="144" width="93" height="102" filterUnits="userSpaceOnUse"
      color-interpolation-filters="sRGB">
      <feFlood flood-opacity="0" result="BackgroundImageFix"></feFlood>
      <feColorMatrix in="SourceAlpha" type="matrix" values="0 0 0 0 0 0 0 0 0 0 0 0 0 0 0 0 0 0 127 0"
        result="hardAlpha"></feColorMatrix>
      <feOffset></feOffset>
      <feGaussianBlur stdDeviation="2"></feGaussianBlur>
      <feComposite in2="hardAlpha" operator="out"></feComposite>
      <feColorMatrix type="matrix" values="0 0 0 0 0 0 0 0 0 0 0 0 0 0 0 0 0 0 0.25 0"></feColorMatrix>
      <feBlend mode="normal" in2="BackgroundImageFix" result="effect1_dropShadow_268_200"></feBlend>
      <feBlend mode="normal" in="SourceGraphic" in2="effect1_dropShadow_268_200" result="shape"></feBlend>
    </filter>
    <filter id="filter2_d_268_200" x="227" y="144" width="236" height="140" filterUnits="userSpaceOnUse"
      color-interpolation-filters="sRGB">
      <feFlood flood-opacity="0" result="BackgroundImageFix"></feFlood>
      <feColorMatrix in="SourceAlpha" type="matrix" values="0 0 0 0 0 0 0 0 0 0 0 0 0 0 0 0 0 0 127 0"
        result="hardAlpha"></feColorMatrix>
      <feOffset></feOffset>
      <feGaussianBlur stdDeviation="2"></feGaussianBlur>
      <feComposite in2="hardAlpha" operator="out"></feComposite>
      <feColorMatrix type="matrix" values="0 0 0 0 0 0 0 0 0 0 0 0 0 0 0 0 0 0 0.25 0"></feColorMatrix>
      <feBlend mode="normal" in2="BackgroundImageFix" result="effect1_dropShadow_268_200"></feBlend>
      <feBlend mode="normal" in="SourceGraphic" in2="effect1_dropShadow_268_200" result="shape"></feBlend>
    </filter>
    <filter id="filter3_d_268_200" x="227" y="289" width="236" height="38" filterUnits="userSpaceOnUse"
      color-interpolation-filters="sRGB">
      <feFlood flood-opacity="0" result="BackgroundImageFix"></feFlood>
      <feColorMatrix in="SourceAlpha" type="matrix" values="0 0 0 0 0 0 0 0 0 0 0 0 0 0 0 0 0 0 127 0"
        result="hardAlpha"></feColorMatrix>
      <feOffset></feOffset>
      <feGaussianBlur stdDeviation="2"></feGaussianBlur>
      <feComposite in2="hardAlpha" operator="out"></feComposite>
      <feColorMatrix type="matrix" values="0 0 0 0 0 0 0 0 0 0 0 0 0 0 0 0 0 0 0.25 0"></feColorMatrix>
      <feBlend mode="normal" in2="BackgroundImageFix" result="effect1_dropShadow_268_200"></feBlend>
      <feBlend mode="normal" in="SourceGraphic" in2="effect1_dropShadow_268_200" result="shape"></feBlend>
    </filter>
    <filter id="filter4_d_268_200" x="227" y="329" width="236" height="38" filterUnits="userSpaceOnUse"
      color-interpolation-filters="sRGB">
      <feFlood flood-opacity="0" result="BackgroundImageFix"></feFlood>
      <feColorMatrix in="SourceAlpha" type="matrix" values="0 0 0 0 0 0 0 0 0 0 0 0 0 0 0 0 0 0 127 0"
        result="hardAlpha"></feColorMatrix>
      <feOffset></feOffset>
      <feGaussianBlur stdDeviation="2"></feGaussianBlur>
      <feComposite in2="hardAlpha" operator="out"></feComposite>
      <feColorMatrix type="matrix" values="0 0 0 0 0 0 0 0 0 0 0 0 0 0 0 0 0 0 0.25 0"></feColorMatrix>
      <feBlend mode="normal" in2="BackgroundImageFix" result="effect1_dropShadow_268_200"></feBlend>
      <feBlend mode="normal" in="SourceGraphic" in2="effect1_dropShadow_268_200" result="shape"></feBlend>
    </filter>
    <filter id="filter5_d_268_200" x="57" y="275" width="130" height="78" filterUnits="userSpaceOnUse"
      color-interpolation-filters="sRGB">
      <feFlood flood-opacity="0" result="BackgroundImageFix"></feFlood>
      <feColorMatrix in="SourceAlpha" type="matrix" values="0 0 0 0 0 0 0 0 0 0 0 0 0 0 0 0 0 0 127 0"
        result="hardAlpha"></feColorMatrix>
      <feOffset></feOffset>
      <feGaussianBlur stdDeviation="2"></feGaussianBlur>
      <feComposite in2="hardAlpha" operator="out"></feComposite>
      <feColorMatrix type="matrix" values="0 0 0 0 0 0 0 0 0 0 0 0 0 0 0 0 0 0 0.25 0"></feColorMatrix>
      <feBlend mode="normal" in2="BackgroundImageFix" result="effect1_dropShadow_268_200"></feBlend>
      <feBlend mode="normal" in="SourceGraphic" in2="effect1_dropShadow_268_200" result="shape"></feBlend>
    </filter>
    <filter id="filter6_d_268_200" x="57" y="360" width="130" height="78" filterUnits="userSpaceOnUse"
      color-interpolation-filters="sRGB">
      <feFlood flood-opacity="0" result="BackgroundImageFix"></feFlood>
      <feColorMatrix in="SourceAlpha" type="matrix" values="0 0 0 0 0 0 0 0 0 0 0 0 0 0 0 0 0 0 127 0"
        result="hardAlpha"></feColorMatrix>
      <feOffset></feOffset>
      <feGaussianBlur stdDeviation="2"></feGaussianBlur>
      <feComposite in2="hardAlpha" operator="out"></feComposite>
      <feColorMatrix type="matrix" values="0 0 0 0 0 0 0 0 0 0 0 0 0 0 0 0 0 0 0.25 0"></feColorMatrix>
      <feBlend mode="normal" in2="BackgroundImageFix" result="effect1_dropShadow_268_200"></feBlend>
      <feBlend mode="normal" in="SourceGraphic" in2="effect1_dropShadow_268_200" result="shape"></feBlend>
    </filter>
    <filter id="filter7_d_268_200" x="493" y="252" width="93" height="104" filterUnits="userSpaceOnUse"
      color-interpolation-filters="sRGB">
      <feFlood flood-opacity="0" result="BackgroundImageFix"></feFlood>
      <feColorMatrix in="SourceAlpha" type="matrix" values="0 0 0 0 0 0 0 0 0 0 0 0 0 0 0 0 0 0 127 0"
        result="hardAlpha"></feColorMatrix>
      <feOffset></feOffset>
      <feGaussianBlur stdDeviation="2"></feGaussianBlur>
      <feComposite in2="hardAlpha" operator="out"></feComposite>
      <feColorMatrix type="matrix" values="0 0 0 0 0 0 0 0 0 0 0 0 0 0 0 0 0 0 0.25 0"></feColorMatrix>
      <feBlend mode="normal" in2="BackgroundImageFix" result="effect1_dropShadow_268_200"></feBlend>
      <feBlend mode="normal" in="SourceGraphic" in2="effect1_dropShadow_268_200" result="shape"></feBlend>
    </filter>
    <filter id="filter8_d_268_200" x="493" y="144" width="93" height="104" filterUnits="userSpaceOnUse"
      color-interpolation-filters="sRGB">
      <feFlood flood-opacity="0" result="BackgroundImageFix"></feFlood>
      <feColorMatrix in="SourceAlpha" type="matrix" values="0 0 0 0 0 0 0 0 0 0 0 0 0 0 0 0 0 0 127 0"
        result="hardAlpha"></feColorMatrix>
      <feOffset></feOffset>
      <feGaussianBlur stdDeviation="2"></feGaussianBlur>
      <feComposite in2="hardAlpha" operator="out"></feComposite>
      <feColorMatrix type="matrix" values="0 0 0 0 0 0 0 0 0 0 0 0 0 0 0 0 0 0 0.25 0"></feColorMatrix>
      <feBlend mode="normal" in2="BackgroundImageFix" result="effect1_dropShadow_268_200"></feBlend>
      <feBlend mode="normal" in="SourceGraphic" in2="effect1_dropShadow_268_200" result="shape"></feBlend>
    </filter>
    <filter id="filter9_d_268_200" x="57" y="108" width="32" height="141" filterUnits="userSpaceOnUse"
      color-interpolation-filters="sRGB">
      <feFlood flood-opacity="0" result="BackgroundImageFix"></feFlood>
      <feColorMatrix in="SourceAlpha" type="matrix" values="0 0 0 0 0 0 0 0 0 0 0 0 0 0 0 0 0 0 127 0"
        result="hardAlpha"></feColorMatrix>
      <feOffset></feOffset>
      <feGaussianBlur stdDeviation="2"></feGaussianBlur>
      <feComposite in2="hardAlpha" operator="out"></feComposite>
      <feColorMatrix type="matrix" values="0 0 0 0 0 0 0 0 0 0 0 0 0 0 0 0 0 0 0.25 0"></feColorMatrix>
      <feBlend mode="normal" in2="BackgroundImageFix" result="effect1_dropShadow_268_200"></feBlend>
      <feBlend mode="normal" in="SourceGraphic" in2="effect1_dropShadow_268_200" result="shape"></feBlend>
    </filter>
    <filter id="filter10_d_268_200" x="179" y="70" width="58" height="58" filterUnits="userSpaceOnUse"
      color-interpolation-filters="sRGB">
      <feFlood flood-opacity="0" result="BackgroundImageFix"></feFlood>
      <feColorMatrix in="SourceAlpha" type="matrix" values="0 0 0 0 0 0 0 0 0 0 0 0 0 0 0 0 0 0 127 0"
        result="hardAlpha"></feColorMatrix>
      <feOffset></feOffset>
      <feGaussianBlur stdDeviation="2"></feGaussianBlur>
      <feComposite in2="hardAlpha" operator="out"></feComposite>
      <feColorMatrix type="matrix" values="0 0 0 0 0 0 0 0 0 0 0 0 0 0 0 0 0 0 0.25 0"></feColorMatrix>
      <feBlend mode="normal" in2="BackgroundImageFix" result="effect1_dropShadow_268_200"></feBlend>
      <feBlend mode="normal" in="SourceGraphic" in2="effect1_dropShadow_268_200" result="shape"></feBlend>
    </filter>
    <filter id="filter11_d_268_200" x="240" y="70" width="58" height="58" filterUnits="userSpaceOnUse"
      color-interpolation-filters="sRGB">
      <feFlood flood-opacity="0" result="BackgroundImageFix"></feFlood>
      <feColorMatrix in="SourceAlpha" type="matrix" values="0 0 0 0 0 0 0 0 0 0 0 0 0 0 0 0 0 0 127 0"
        result="hardAlpha"></feColorMatrix>
      <feOffset></feOffset>
      <feGaussianBlur stdDeviation="2"></feGaussianBlur>
      <feComposite in2="hardAlpha" operator="out"></feComposite>
      <feColorMatrix type="matrix" values="0 0 0 0 0 0 0 0 0 0 0 0 0 0 0 0 0 0 0.25 0"></feColorMatrix>
      <feBlend mode="normal" in2="BackgroundImageFix" result="effect1_dropShadow_268_200"></feBlend>
      <feBlend mode="normal" in="SourceGraphic" in2="effect1_dropShadow_268_200" result="shape"></feBlend>
    </filter>
    <filter id="filter12_d_268_200" x="301" y="70" width="58" height="58" filterUnits="userSpaceOnUse"
      color-interpolation-filters="sRGB">
      <feFlood flood-opacity="0" result="BackgroundImageFix"></feFlood>
      <feColorMatrix in="SourceAlpha" type="matrix" values="0 0 0 0 0 0 0 0 0 0 0 0 0 0 0 0 0 0 127 0"
        result="hardAlpha"></feColorMatrix>
      <feOffset></feOffset>
      <feGaussianBlur stdDeviation="2"></feGaussianBlur>
      <feComposite in2="hardAlpha" operator="out"></feComposite>
      <feColorMatrix type="matrix" values="0 0 0 0 0 0 0 0 0 0 0 0 0 0 0 0 0 0 0.25 0"></feColorMatrix>
      <feBlend mode="normal" in2="BackgroundImageFix" result="effect1_dropShadow_268_200"></feBlend>
      <feBlend mode="normal" in="SourceGraphic" in2="effect1_dropShadow_268_200" result="shape"></feBlend>
    </filter>
    <linearGradient id="paint0_linear_268_200" x1="378" y1="82" x2="378" y2="412" gradientUnits="userSpaceOnUse">
      <stop stop-color="#19A4D8"></stop>
      <stop offset="1" stop-color="#9537FC"></stop>
    </linearGradient>
    <linearGradient id="paint1_linear_268_200" x1="100" y1="98" x2="540" y2="98" gradientUnits="userSpaceOnUse">
      <stop stop-color="#18A5D7"></stop>
      <stop offset="1" stop-color="#9537FC"></stop>
    </linearGradient>
    <clipPath id="clip0_268_200">
      <rect width="65" height="15" fill="white" transform="translate(137 154)"></rect>
    </clipPath>
    <clipPath id="clip1_268_200">
      <rect width="50" height="57" fill="white" transform="translate(253 172)"></rect>
    </clipPath>
    <clipPath id="clip2_268_200">
      <rect width="99" height="15" fill="white" transform="translate(325 164)"></rect>
    </clipPath>
    <clipPath id="clip3_268_200">
      <rect width="99" height="15" fill="white" transform="translate(325 182)"></rect>
    </clipPath>
    <clipPath id="clip4_268_200">
      <rect width="99" height="15" fill="white" transform="translate(325 200)"></rect>
    </clipPath>
    <clipPath id="clip5_268_200">
      <rect width="91" height="15" fill="white" transform="translate(267 299)"></rect>
    </clipPath>
    <clipPath id="clip6_268_200">
      <rect width="91" height="5" fill="white" transform="translate(267 304)"></rect>
    </clipPath>
    <clipPath id="clip7_268_200">
      <rect width="91" height="5" fill="white" transform="translate(267 309)"></rect>
    </clipPath>
    <clipPath id="clip8_268_200">
      <rect width="91" height="15" fill="white" transform="translate(267 339)"></rect>
    </clipPath>
    <clipPath id="clip9_268_200">
      <rect width="91" height="5" fill="white" transform="translate(267 344)"></rect>
    </clipPath>
    <clipPath id="clip10_268_200">
      <rect width="91" height="5" fill="white" transform="translate(267 349)"></rect>
    </clipPath>
    <clipPath id="clip11_268_200">
      <rect width="102" height="20" fill="white" transform="translate(71 289)"></rect>
    </clipPath>
    <clipPath id="clip12_268_200">
      <rect width="102" height="20" fill="white" transform="translate(71 374)"></rect>
    </clipPath>
  </defs>
</svg>