<svg width="466" height="332" viewBox="0 0 466 332" fill="none" xmlns="http://www.w3.org/2000/svg">
<g filter="url(#filter0_d_151_858)">
<g clip-path="url(#clip0_151_858)">
<g clip-path="url(#clip1_151_858)">
<rect width="440" height="270" transform="translate(4 21)" fill="black"/>
<mask id="path-2-inside-1_151_858" fill="white">
<path d="M29 21H124V291H29V21Z"/>
</mask>
<path d="M29 21H124V291H29V21Z" fill="#181818"/>
<path d="M123 21V291H125V21H123Z" fill="#252525" mask="url(#path-2-inside-1_151_858)"/>
<mask id="path-4-inside-2_151_858" fill="white">
<path d="M29 27H124V72H29V27Z"/>
</mask>
<path d="M124 71H29V73H124V71Z" fill="#252525" mask="url(#path-4-inside-2_151_858)"/>
<rect x="33" y="31" width="6" height="6" fill="#C8C8C5"/>
<rect x="43" y="31" width="30" height="6" fill="#C8C8C5"/>
<rect x="77" y="31" width="20" height="6" fill="#C8C8C5"/>
<rect x="49" y="41" width="30" height="6" fill="#B1B0B5"/>
<rect x="81" y="41" width="10" height="6" fill="#B1B0B5"/>
<rect x="49" y="51" width="30" height="6" fill="#B1B0B5"/>
<rect x="81" y="51" width="13" height="6" fill="#B1B0B5"/>
<rect x="96" y="51" width="10" height="6" fill="#B1B0B5"/>
<rect x="49" y="61" width="49" height="6" fill="#B1B0B5"/>
<rect x="100" y="61" width="10" height="6" fill="#B1B0B5"/>
<g clip-path="url(#clip2_151_858)">
<mask id="path-16-inside-3_151_858" fill="white">
<path d="M29 72H124V259H29V72Z"/>
</mask>
<rect x="33" y="76" width="6" height="6" fill="#C8C8C5"/>
<rect x="43" y="76" width="34" height="6" fill="#C8C8C5"/>
<rect x="81" y="76" width="27" height="6" fill="#C8C8C5"/>
<rect x="49" y="86" width="30" height="6" fill="#B1B0B5"/>
<rect x="81" y="86" width="10" height="6" fill="#B1B0B5"/>
<rect x="49" y="96" width="30" height="6" fill="#B1B0B5"/>
<rect x="81" y="96" width="10" height="6" fill="#B1B0B5"/>
<rect x="49" y="106" width="49" height="6" fill="#B1B0B5"/>
<rect x="100" y="106" width="10" height="6" fill="#B1B0B5"/>
<rect x="49" y="116" width="24" height="6" fill="#B1B0B5"/>
<rect x="75" y="116" width="20" height="6" fill="#B1B0B5"/>
<rect x="97" y="116" width="10" height="6" fill="#B1B0B5"/>
<rect x="49" y="126" width="37" height="6" fill="#B1B0B5"/>
<rect x="88" y="126" width="10" height="6" fill="#B1B0B5"/>
<rect x="49" y="136" width="15" height="6" fill="#B1B0B5"/>
<rect x="66" y="136" width="10" height="6" fill="#B1B0B5"/>
<rect x="49" y="146" width="50" height="6" fill="#B1B0B5"/>
<rect x="101" y="146" width="10" height="6" fill="#B1B0B5"/>
<rect x="49" y="156" width="49" height="6" fill="#B1B0B5"/>
<rect x="100" y="156" width="10" height="6" fill="#B1B0B5"/>
<rect x="49" y="166" width="30" height="6" fill="#B1B0B5"/>
<rect x="81" y="166" width="18" height="6" fill="#B1B0B5"/>
<rect x="101" y="166" width="10" height="6" fill="#B1B0B5"/>
<rect x="49" y="176" width="30" height="6" fill="#B1B0B5"/>
<rect x="81" y="176" width="10" height="6" fill="#B1B0B5"/>
<rect x="49" y="186" width="17" height="6" fill="#B1B0B5"/>
<rect x="68" y="186" width="10" height="6" fill="#B1B0B5"/>
<rect x="49" y="196" width="30" height="6" fill="#B1B0B5"/>
<rect x="81" y="196" width="10" height="6" fill="#B1B0B5"/>
<rect x="49" y="206" width="42" height="6" fill="#B1B0B5"/>
<rect x="93" y="206" width="10" height="6" fill="#B1B0B5"/>
<rect x="49" y="216" width="30" height="6" fill="#B1B0B5"/>
<rect x="81" y="216" width="10" height="6" fill="#B1B0B5"/>
<rect x="49" y="226" width="18" height="6" fill="#B1B0B5"/>
<rect x="69" y="226" width="18" height="6" fill="#B1B0B5"/>
<rect x="89" y="226" width="10" height="6" fill="#B1B0B5"/>
<rect x="49" y="236" width="50" height="6" fill="#B1B0B5"/>
<rect x="101" y="236" width="10" height="6" fill="#B1B0B5"/>
<rect x="49" y="246" width="12" height="6" fill="#B1B0B5"/>
<rect x="63" y="246" width="10" height="6" fill="#B1B0B5"/>
<rect x="49" y="256" width="30" height="6" fill="#B1B0B5"/>
<rect x="81" y="256" width="10" height="6" fill="#B1B0B5"/>
</g>
<path d="M124 258H29V260H124V258Z" fill="#252525" mask="url(#path-16-inside-3_151_858)"/>
<mask id="path-60-inside-4_151_858" fill="white">
<path d="M29 259H124V274H29V259Z"/>
</mask>
<path d="M124 273H29V275H124V273Z" fill="#252525" mask="url(#path-60-inside-4_151_858)"/>
<rect x="33" y="263" width="6" height="6" fill="#C8C8C5"/>
<rect x="43" y="263" width="30" height="6" fill="#C8C8C5"/>
<mask id="path-64-inside-5_151_858" fill="white">
<path d="M29 274H124V289H29V274Z"/>
</mask>
<path d="M124 288H29V290H124V288Z" fill="#252525" mask="url(#path-64-inside-5_151_858)"/>
<rect x="33" y="278" width="6" height="6" fill="#C8C8C5"/>
<rect x="43" y="278" width="36" height="6" fill="#C8C8C5"/>
<mask id="path-68-inside-6_151_858" fill="white">
<path d="M4 21H28V291H4V21Z"/>
</mask>
<path d="M4 21H28V291H4V21Z" fill="#181818"/>
<path d="M27 21V291H29V21H27Z" fill="#252525" mask="url(#path-68-inside-6_151_858)"/>
<rect x="11" y="31" width="10" height="10" rx="2" fill="#858585"/>
<rect x="11" y="51" width="10" height="10" rx="2" fill="#858585"/>
<rect x="11" y="71" width="10" height="10" rx="2" fill="#858585"/>
<rect x="11" y="91" width="10" height="10" rx="2" fill="#858585"/>
<rect x="11" y="111" width="10" height="10" rx="2" fill="#858585"/>
<rect x="11" y="131" width="10" height="10" rx="2" fill="#858585"/>
<rect width="320" height="270" transform="translate(124 21)" fill="#1C1C1C"/>
<g clip-path="url(#clip3_151_858)">
<rect x="136" y="33" width="25" height="6" fill="#569CD6"/>
<rect x="143" y="41" width="25" height="6" fill="#569CD6"/>
<rect x="172" y="41" width="15" height="6" fill="#9CDCFE"/>
<rect x="191" y="41" width="101" height="6" fill="#CE9178"/>
<rect x="149" y="49" width="15" height="6" fill="#569CD6"/>
<rect x="168" y="49" width="20" height="6" fill="#9CDCFE"/>
<rect x="192" y="49" width="235" height="6" fill="#CE9178"/>
<rect x="155" y="57" width="15" height="6" fill="#569CD6"/>
<rect x="174" y="57" width="20" height="6" fill="#9CDCFE"/>
<rect x="198" y="57" width="162" height="6" fill="#CE9178"/>
<rect x="161" y="65" width="15" height="6" fill="#569CD6"/>
<rect x="180" y="65" width="15" height="6" fill="#9CDCFE"/>
<rect x="199" y="65" width="150" height="6" fill="#CE9178"/>
<rect x="161" y="73" width="15" height="6" fill="#569CD6"/>
<rect x="161" y="81" width="15" height="6" fill="#569CD6"/>
<rect x="168" y="89" width="15" height="6" fill="#9CDCFE"/>
<rect x="187" y="89" width="146" height="6" fill="#CE9178"/>
<rect x="168" y="97" width="9" height="6" fill="#9CDCFE"/>
<rect x="181" y="97" width="74" height="6" fill="#CE9178"/>
<rect x="168" y="105" width="9" height="6" fill="#9CDCFE"/>
<rect x="181" y="105" width="76" height="6" fill="#CE9178"/>
<rect x="155" y="113" width="15" height="6" fill="#569CD6"/>
<rect x="155" y="121" width="15" height="6" fill="#569CD6"/>
<rect x="174" y="121" width="20" height="6" fill="#9CDCFE"/>
<rect x="198" y="121" width="158" height="6" fill="#CE9178"/>
<rect x="162" y="129" width="15" height="6" fill="#569CD6"/>
<rect x="168" y="137" width="15" height="6" fill="#9CDCFE"/>
<rect x="187" y="137" width="146" height="6" fill="#CE9178"/>
<rect x="168" y="145" width="9" height="6" fill="#9CDCFE"/>
<rect x="181" y="145" width="74" height="6" fill="#CE9178"/>
<rect x="168" y="153" width="9" height="6" fill="#9CDCFE"/>
<rect x="181" y="153" width="52" height="6" fill="#CE9178"/>
<rect x="162" y="161" width="15" height="6" fill="#569CD6"/>
<rect x="181" y="161" width="20" height="6" fill="#9CDCFE"/>
<rect x="205" y="161" width="143" height="6" fill="#CE9178"/>
<rect x="162" y="169" width="15" height="6" fill="#569CD6"/>
<rect x="155" y="177" width="15" height="6" fill="#569CD6"/>
<rect x="155" y="185" width="15" height="6" fill="#569CD6"/>
<rect x="174" y="185" width="20" height="6" fill="#9CDCFE"/>
<rect x="198" y="185" width="162" height="6" fill="#CE9178"/>
<rect x="161" y="193" width="15" height="6" fill="#569CD6"/>
<rect x="180" y="193" width="15" height="6" fill="#9CDCFE"/>
<rect x="199" y="193" width="150" height="6" fill="#CE9178"/>
<rect x="161" y="201" width="15" height="6" fill="#569CD6"/>
<rect x="161" y="209" width="15" height="6" fill="#569CD6"/>
<rect x="168" y="217" width="15" height="6" fill="#9CDCFE"/>
<rect x="187" y="217" width="146" height="6" fill="#CE9178"/>
<rect x="168" y="225" width="9" height="6" fill="#9CDCFE"/>
<rect x="181" y="225" width="74" height="6" fill="#CE9178"/>
<rect x="168" y="233" width="9" height="6" fill="#9CDCFE"/>
<rect x="181" y="233" width="76" height="6" fill="#CE9178"/>
<rect x="155" y="241" width="15" height="6" fill="#569CD6"/>
<rect x="149" y="249" width="15" height="6" fill="#569CD6"/>
<rect x="143" y="257" width="28" height="6" fill="#569CD6"/>
<rect x="136" y="265" width="28" height="6" fill="#569CD6"/>
</g>
</g>
<rect x="4" y="11" width="440" height="10" fill="url(#paint0_linear_151_858)"/>
<circle cx="13" cy="16" r="2" fill="white"/>
<circle cx="22" cy="16" r="2" fill="white"/>
<circle cx="31" cy="16" r="2" fill="white"/>
</g>
</g>
<path d="M276.5 1H455C460.523 1 465 5.47715 465 11V68.5M361 331H109C103.477 331 99 326.523 99 321V280.5" stroke="url(#paint1_linear_151_858)" stroke-dasharray="4 4"/>
<defs>
<filter id="filter0_d_151_858" x="0" y="11" width="448" height="288" filterUnits="userSpaceOnUse" color-interpolation-filters="sRGB">
<feFlood flood-opacity="0" result="BackgroundImageFix"/>
<feColorMatrix in="SourceAlpha" type="matrix" values="0 0 0 0 0 0 0 0 0 0 0 0 0 0 0 0 0 0 127 0" result="hardAlpha"/>
<feOffset dy="4"/>
<feGaussianBlur stdDeviation="2"/>
<feComposite in2="hardAlpha" operator="out"/>
<feColorMatrix type="matrix" values="0 0 0 0 0 0 0 0 0 0 0 0 0 0 0 0 0 0 0.25 0"/>
<feBlend mode="normal" in2="BackgroundImageFix" result="effect1_dropShadow_151_858"/>
<feBlend mode="normal" in="SourceGraphic" in2="effect1_dropShadow_151_858" result="shape"/>
</filter>
<linearGradient id="paint0_linear_151_858" x1="4" y1="16" x2="444" y2="16" gradientUnits="userSpaceOnUse">
<stop stop-color="#18A5D7"/>
<stop offset="1" stop-color="#9537FC"/>
</linearGradient>
<linearGradient id="paint1_linear_151_858" x1="282" y1="1" x2="282" y2="331" gradientUnits="userSpaceOnUse">
<stop stop-color="#19A4D8"/>
<stop offset="1" stop-color="#9537FC"/>
</linearGradient>
<clipPath id="clip0_151_858">
<rect x="4" y="11" width="440" height="280" rx="2" fill="white"/>
</clipPath>
<clipPath id="clip1_151_858">
<rect width="440" height="270" fill="white" transform="translate(4 21)"/>
</clipPath>
<clipPath id="clip2_151_858">
<path d="M29 72H124V259H29V72Z" fill="white"/>
</clipPath>
<clipPath id="clip3_151_858">
<rect width="300" height="250" fill="white" transform="translate(134 31)"/>
</clipPath>
</defs>
</svg>
