<svg xmlns="http://www.w3.org/2000/svg" fill="none" viewBox="0 0 640 465"><path fill="#9438FC" d="M294 103V93l-11.295-3.765a30.049 30.049 0 0 0-2.205-5.33l5.33-10.655-7.08-7.08-10.655 5.33a31.622 31.622 0 0 0-5.33-2.205L259 58h-10l-3.765 11.295a30.427 30.427 0 0 0-5.33 2.205l-10.655-5.31-7.06 7.06 5.33 10.655a30.12 30.12 0 0 0-2.225 5.33L214 93v10l11.295 3.765c.56 1.86 1.315 3.64 2.205 5.33l-5.33 10.655 7.08 7.08 10.655-5.33c1.69.89 3.47 1.64 5.33 2.205L249 138h10l3.765-11.295c1.86-.565 3.64-1.31 5.33-2.205l10.655 5.33 7.08-7.08-5.33-10.655a30.27 30.27 0 0 0 2.205-5.33L294 103Zm-40 10c-8.28 0-15-6.72-15-15 0-8.28 6.72-15 15-15 8.28 0 15 6.72 15 15 0 8.28-6.72 15-15 15Z"><animateTransform attributeName="transform" calcMode="linear" dur="14s" from="0 254 98" repeatCount="indefinite" to="360 254 98" type="rotate"/></path><path fill="#569CD6" d="M158.889 248.541v-13.453l-15.233-5.066a40.36 40.36 0 0 0-2.974-7.17l7.189-14.335-9.549-9.525-14.369 7.17a42.714 42.714 0 0 0-7.188-2.966L111.687 188H98.201l-5.077 15.196a41.109 41.109 0 0 0-7.188 2.966l-14.37-7.143-9.52 9.498 7.187 14.335a40.456 40.456 0 0 0-3 7.17L51 235.088v13.453l15.233 5.066c.755 2.502 1.773 4.897 2.973 7.171l-7.188 14.334 9.548 9.526 14.37-7.171a41.109 41.109 0 0 0 7.188 2.966l5.077 15.196h13.486l5.078-15.196a40.582 40.582 0 0 0 7.188-2.966l14.369 7.171 9.549-9.526-7.189-14.334a40.633 40.633 0 0 0 2.974-7.171l15.233-5.066Zm-53.945 13.454c-11.166 0-20.229-9.041-20.229-20.18 0-11.14 9.063-20.181 20.229-20.181 11.167 0 20.229 9.041 20.229 20.181 0 11.139-9.062 20.18-20.229 20.18Z"><animateTransform attributeName="transform" calcMode="linear" dur="8s" from="0 104.944 241.815" repeatCount="indefinite" to="-360 104.944 241.815" type="rotate"/></path><path fill="#9538FC" d="M567 297.688v-4.376l-4.942-1.647a13.216 13.216 0 0 0-.964-2.332l2.332-4.661-3.098-3.098-4.661 2.332a13.85 13.85 0 0 0-2.332-.964L551.688 278h-4.376l-1.647 4.942c-.813.247-1.592.575-2.332.964l-4.661-2.323-3.089 3.089 2.332 4.661c-.398.74-.72 1.519-.973 2.332L532 293.312v4.376l4.942 1.647c.245.813.575 1.592.964 2.332l-2.332 4.661 3.098 3.098 4.661-2.332c.74.389 1.519.717 2.332.964l1.647 4.942h4.376l1.647-4.942a13.216 13.216 0 0 0 2.332-.964l4.661 2.332 3.098-3.098-2.332-4.661c.389-.738.717-1.519.964-2.332l4.942-1.647Zm-17.5 4.374a6.564 6.564 0 0 1-6.562-6.562 6.563 6.563 0 0 1 6.562-6.562 6.564 6.564 0 0 1 6.562 6.562 6.565 6.565 0 0 1-6.562 6.562Z"><animateTransform attributeName="transform" calcMode="linear" dur="5s" from="0 549.5 295.5" repeatCount="indefinite" to="360 549.5 295.5" type="rotate"/></path><path fill="#596CEA" d="m588.312 304.203-1.075-2.934-3.719.11a9.38 9.38 0 0 0-1.22-1.326l.418-3.7-2.839-1.316-2.553 2.71a9.816 9.816 0 0 0-1.801-.074l-2.319-2.909-2.935 1.075.11 3.719a9.503 9.503 0 0 0-1.326 1.221l-3.698-.413-1.312 2.831 2.71 2.553a9.421 9.421 0 0 0-.08 1.803l-2.909 2.32 1.076 2.934 3.719-.11c.364.485.777.927 1.22 1.327l-.418 3.699 2.839 1.316 2.553-2.71c.591.08 1.194.108 1.801.074l2.319 2.909 2.934-1.075-.11-3.719a9.444 9.444 0 0 0 1.327-1.22l3.699.418 1.316-2.839-2.709-2.553c.079-.59.108-1.195.073-1.801l2.909-2.32Zm-10.661 7.236a4.688 4.688 0 0 1-3.226-8.802 4.688 4.688 0 0 1 3.226 8.802Z"><animateTransform attributeName="transform" calcMode="linear" dur="5s" from="0 577.651 307.043" repeatCount="indefinite" to="-360 577.651 307.043" type="rotate"/></path><g filter="url(#a)"><g clip-path="url(#b)"><g clip-path="url(#c)"><path fill="#000" d="M84 106h440v270H84z"/><mask id="d" fill="#fff"><path d="M109 106h95v270h-95V106Z"/></mask><path fill="#181818" d="M109 106h95v270h-95V106Z"/><path fill="#252525" d="M204 106h-1v270h2V106h-1Z" mask="url(#d)"/><mask id="e" fill="#fff"><path d="M109 112h95v45h-95v-45Z"/></mask><path fill="#252525" d="M204 157v-1h-95v2h95v-1Z" mask="url(#e)"/><g fill="#C8C8C5"><path d="M113 116h6v6h-6zM123 116h30v6h-30zM157 116h20v6h-20z"/></g><g fill="#B1B0B5"><path d="M129 126h30v6h-30zM161 126h10v6h-10zM129 136h30v6h-30zM161 136h13v6h-13zM176 136h10v6h-10zM129 146h49v6h-49zM180 146h10v6h-10z"/></g><g clip-path="url(#f)"><mask id="g" fill="#fff"><path d="M109 157h95v187h-95V157Z"/></mask><g fill="#C8C8C5"><path d="M113 161h6v6h-6zM123 161h34v6h-34zM161 161h27v6h-27z"/></g><g fill="#B1B0B5"><path d="M129 171h30v6h-30zM161 171h10v6h-10zM129 181h30v6h-30zM161 181h10v6h-10zM129 191h49v6h-49zM180 191h10v6h-10zM129 201h24v6h-24zM155 201h20v6h-20zM177 201h10v6h-10zM129 211h37v6h-37zM168 211h10v6h-10zM129 221h15v6h-15zM146 221h10v6h-10zM129 231h50v6h-50zM181 231h10v6h-10zM129 241h49v6h-49zM180 241h10v6h-10zM129 251h30v6h-30zM161 251h18v6h-18zM181 251h10v6h-10zM129 261h30v6h-30zM161 261h10v6h-10zM129 271h17v6h-17zM148 271h10v6h-10zM129 281h30v6h-30zM161 281h10v6h-10zM129 291h42v6h-42zM173 291h10v6h-10zM129 301h30v6h-30zM161 301h10v6h-10zM129 311h18v6h-18zM149 311h18v6h-18zM169 311h10v6h-10zM129 321h50v6h-50zM181 321h10v6h-10zM129 331h12v6h-12zM143 331h10v6h-10zM129 341h30v6h-30zM161 341h10v6h-10z"/></g></g><path fill="#252525" d="M204 344v-1h-95v2h95v-1Z" mask="url(#g)"/><mask id="h" fill="#fff"><path d="M109 344h95v15h-95v-15Z"/></mask><path fill="#252525" d="M204 359v-1h-95v2h95v-1Z" mask="url(#h)"/><g fill="#C8C8C5"><path d="M113 348h6v6h-6zM123 348h30v6h-30z"/></g><mask id="i" fill="#fff"><path d="M109 359h95v15h-95v-15Z"/></mask><path fill="#252525" d="M204 374v-1h-95v2h95v-1Z" mask="url(#i)"/><g fill="#C8C8C5"><path d="M113 363h6v6h-6zM123 363h36v6h-36z"/></g><mask id="j" fill="#fff"><path d="M84 106h24v270H84V106Z"/></mask><path fill="#181818" d="M84 106h24v270H84V106Z"/><path fill="#252525" d="M108 106h-1v270h2V106h-1Z" mask="url(#j)"/><rect width="10" height="10" x="91" y="116" fill="#858585" rx="2"/><rect width="10" height="10" x="91" y="136" fill="#858585" rx="2"/><rect width="10" height="10" x="91" y="156" fill="#858585" rx="2"/><rect width="10" height="10" x="91" y="176" fill="#858585" rx="2"/><rect width="10" height="10" x="91" y="196" fill="#858585" rx="2"/><rect width="10" height="10" x="91" y="216" fill="#858585" rx="2"/><path fill="#1C1C1C" d="M204 106h320v270H204z"/><g clip-path="url(#k)"><path fill="#569CD6" d="M216 118h25v6h-25zM223 126h25v6h-25z"/><path fill="#9CDCFE" d="M252 126h15v6h-15z"/><path fill="#CE9178" d="M271 126h101v6H271z"/><path fill="#569CD6" d="M229 134h15v6h-15z"/><path fill="#9CDCFE" d="M248 134h20v6h-20z"/><path fill="#CE9178" d="M272 134h235v6H272z"/><path fill="#569CD6" d="M235 142h15v6h-15z"/><path fill="#9CDCFE" d="M254 142h20v6h-20z"/><path fill="#CE9178" d="M278 142h162v6H278z"/><path fill="#569CD6" d="M241 150h15v6h-15z"/><path fill="#9CDCFE" d="M260 150h15v6h-15z"/><path fill="#CE9178" d="M279 150h150v6H279z"/><path fill="#569CD6" d="M241 158h15v6h-15zM241 166h15v6h-15z"/><path fill="#9CDCFE" d="M248 174h15v6h-15z"/><path fill="#CE9178" d="M267 174h146v6H267z"/><path fill="#9CDCFE" d="M248 182h9v6h-9z"/><path fill="#CE9178" d="M261 182h36v6h-36z"/><path fill="#9CDCFE" d="M248 190h9v6h-9z"/><path fill="#CE9178" d="M261 190h76v6h-76z"/><path fill="#569CD6" d="M235 198h15v6h-15zM235 206h15v6h-15z"/><path fill="#9CDCFE" d="M254 206h20v6h-20z"/><path fill="#CE9178" d="M278 206h158v6H278z"/><path fill="#569CD6" d="M242 214h15v6h-15z"/><path fill="#9CDCFE" d="M248 222h15v6h-15z"/><path fill="#CE9178" d="M267 222h146v6H267z"/><path fill="#9CDCFE" d="M248 230h9v6h-9z"/><path fill="#CE9178" d="M261 230h74v6h-74z"/><path fill="#9CDCFE" d="M248 238h9v6h-9z"/><path fill="#CE9178" d="M261 238h52v6h-52z"/><path fill="#569CD6" d="M242 246h15v6h-15z"/><path fill="#9CDCFE" d="M261 246h20v6h-20z"/><path fill="#CE9178" d="M285 246h143v6H285z"/><path fill="#569CD6" d="M242 254h15v6h-15zM235 262h15v6h-15zM235 270h15v6h-15z"/><path fill="#9CDCFE" d="M254 270h20v6h-20z"/><path fill="#CE9178" d="M278 270h162v6H278z"/><path fill="#569CD6" d="M241 278h15v6h-15z"/><path fill="#9CDCFE" d="M260 278h15v6h-15z"/><path fill="#CE9178" d="M279 278h150v6H279z"/><path fill="#569CD6" d="M241 286h15v6h-15zM241 294h15v6h-15z"/><path fill="#9CDCFE" d="M248 302h15v6h-15z"/><path fill="#CE9178" d="M267 302h146v6H267z"/><path fill="#9CDCFE" d="M248 310h9v6h-9z"/><path fill="#CE9178" d="M261 310h74v6h-74z"/><path fill="#9CDCFE" d="M248 318h9v6h-9z"/><path fill="#CE9178" d="M261 318h76v6h-76z"/><path fill="#569CD6" d="M235 326h15v6h-15zM229 334h15v6h-15zM223 342h28v6h-28zM216 350h28v6h-28z"/></g></g><path fill="url(#l)" d="M84 96h440v10H84z"/><g fill="#fff"><circle cx="93" cy="101" r="2"/><circle cx="102" cy="101" r="2"/><circle cx="111" cy="101" r="2"/></g></g></g><g><animateTransform attributeName="transform" calcMode="linear" dur="14s" repeatCount="indefinite" type="translate" values="0 0; 3 -3; -3 2; 3 3; -3 -2; 2 -1; -3 3; 3 2; -2 -3; 0 0"/><g clip-path="url(#m)"><g clip-path="url(#n)"><path fill="#000" d="M40 337h114v77H40z"/><path fill="#1C1C1C" d="M40 337h114v156H40z"/><g clip-path="url(#o)"><path fill="#569CD6" d="M44 341h26v3H44z"/><g clip-path="url(#p)"><path fill="#569CD6" d="M48 346h25v3H48z"/><path fill="#9CDCFE" d="M77 346h15v3H77z"/><path fill="#CE9178" d="M96 346h101v3H96z"/></g><g clip-path="url(#q)"><path fill="#569CD6" d="M54 351h15v3H54z"/><path fill="#9CDCFE" d="M73 351h20v3H73z"/><path fill="#CE9178" d="M97 351h235v3H97z"/></g><g clip-path="url(#r)"><path fill="#569CD6" d="M60 356h15v3H60z"/><path fill="#9CDCFE" d="M79 356h20v3H79z"/><path fill="#CE9178" d="M103 356h162v3H103z"/></g><g clip-path="url(#s)"><path fill="#569CD6" d="M66 361h15v3H66z"/><path fill="#9CDCFE" d="M85 361h15v3H85z"/><path fill="#CE9178" d="M104 361h150v3H104z"/></g><path fill="#569CD6" d="M66 366h15v3H66zM66 371h15v3H66z"/><g clip-path="url(#t)"><path fill="#9CDCFE" d="M73 376h15v3H73z"/><path fill="#CE9178" d="M92 376h146v3H92z"/></g><g clip-path="url(#u)"><path fill="#9CDCFE" d="M73 381h9v3h-9z"/><path fill="#CE9178" d="M86 381h74v3H86z"/></g><g clip-path="url(#v)"><path fill="#9CDCFE" d="M73 386h9v3h-9z"/><path fill="#CE9178" d="M86 386h76v3H86z"/></g><path fill="#569CD6" d="M60 391h15v3H60z"/><g clip-path="url(#w)"><path fill="#569CD6" d="M60 396h15v3H60z"/><path fill="#9CDCFE" d="M79 396h20v3H79z"/><path fill="#CE9178" d="M103 396h158v3H103z"/></g><path fill="#569CD6" d="M66 401h15v3H66z"/><g clip-path="url(#x)"><path fill="#9CDCFE" d="M73 406h15v3H73z"/><path fill="#CE9178" d="M92 406h146v3H92z"/></g><g clip-path="url(#y)"><path fill="#9CDCFE" d="M73 411h9v3h-9z"/><path fill="#CE9178" d="M86 411h74v3H86z"/></g></g></g><path fill="url(#z)" d="M40 327h114v10H40z"/><g fill="#fff"><circle cx="49" cy="332" r="2"/><circle cx="58" cy="332" r="2"/><circle cx="67" cy="332" r="2"/></g></g></g><g><animateTransform attributeName="transform" calcMode="linear" dur="16s" repeatCount="indefinite" type="translate" values="0 0; 3 -3; -3 3; 3 3; -3 -3; 2 -2; -2 3; 3 2; -2 -3; 0 0"/><g clip-path="url(#A)"><g clip-path="url(#B)"><path fill="#000" d="M478 42h114v156H478z"/><path fill="#1C1C1C" d="M478 42h114v156H478z"/><g clip-path="url(#C)"><path fill="#569CD6" d="M482 46h26v3h-26z"/><g clip-path="url(#D)"><path fill="#569CD6" d="M486 51h25v3h-25z"/><path fill="#9CDCFE" d="M515 51h15v3h-15z"/><path fill="#CE9178" d="M534 51h101v3H534z"/></g><g clip-path="url(#E)"><path fill="#569CD6" d="M492 56h15v3h-15z"/><path fill="#9CDCFE" d="M511 56h20v3h-20z"/><path fill="#CE9178" d="M535 56h235v3H535z"/></g><g clip-path="url(#F)"><path fill="#569CD6" d="M498 61h15v3h-15z"/><path fill="#9CDCFE" d="M517 61h20v3h-20z"/><path fill="#CE9178" d="M541 61h162v3H541z"/></g><g clip-path="url(#G)"><path fill="#569CD6" d="M504 66h15v3h-15z"/><path fill="#9CDCFE" d="M523 66h15v3h-15z"/><path fill="#CE9178" d="M542 66h150v3H542z"/></g><path fill="#569CD6" d="M504 71h15v3h-15zM504 76h15v3h-15z"/><g clip-path="url(#H)"><path fill="#9CDCFE" d="M511 81h15v3h-15z"/><path fill="#CE9178" d="M530 81h146v3H530z"/></g><g clip-path="url(#I)"><path fill="#9CDCFE" d="M511 86h9v3h-9z"/><path fill="#CE9178" d="M524 86h74v3h-74z"/></g><g clip-path="url(#J)"><path fill="#9CDCFE" d="M511 91h9v3h-9z"/><path fill="#CE9178" d="M524 91h76v3h-76z"/></g><path fill="#569CD6" d="M498 96h15v3h-15z"/><g clip-path="url(#K)"><path fill="#569CD6" d="M498 101h15v3h-15z"/><path fill="#9CDCFE" d="M517 101h20v3h-20z"/><path fill="#CE9178" d="M541 101h158v3H541z"/></g><path fill="#569CD6" d="M504 106h15v3h-15z"/><g clip-path="url(#L)"><path fill="#9CDCFE" d="M511 111h15v3h-15z"/><path fill="#CE9178" d="M530 111h146v3H530z"/></g><g clip-path="url(#M)"><path fill="#9CDCFE" d="M511 116h9v3h-9z"/><path fill="#CE9178" d="M524 116h74v3h-74z"/></g><path fill="#9CDCFE" d="M511 121h9v3h-9z"/><path fill="#CE9178" d="M524 121h52v3h-52z"/><g clip-path="url(#N)"><path fill="#569CD6" d="M504 126h15v3h-15z"/><path fill="#9CDCFE" d="M523 126h20v3h-20z"/><path fill="#CE9178" d="M547 126h143v3H547z"/></g><path fill="#569CD6" d="M504 131h15v3h-15zM498 136h15v3h-15z"/><g clip-path="url(#O)"><path fill="#569CD6" d="M498 141h15v3h-15z"/><path fill="#9CDCFE" d="M517 141h20v3h-20z"/><path fill="#CE9178" d="M541 141h162v3H541z"/></g><g clip-path="url(#P)"><path fill="#569CD6" d="M504 146h15v3h-15z"/><path fill="#9CDCFE" d="M523 146h15v3h-15z"/><path fill="#CE9178" d="M542 146h150v3H542z"/></g><path fill="#569CD6" d="M504 151h15v3h-15zM504 156h15v3h-15z"/><g clip-path="url(#Q)"><path fill="#9CDCFE" d="M511 161h15v3h-15z"/><path fill="#CE9178" d="M530 161h146v3H530z"/></g><g clip-path="url(#R)"><path fill="#9CDCFE" d="M511 166h9v3h-9z"/><path fill="#CE9178" d="M524 166h74v3h-74z"/></g><g clip-path="url(#S)"><path fill="#9CDCFE" d="M511 171h9v3h-9z"/><path fill="#CE9178" d="M524 171h76v3h-76z"/></g><path fill="#569CD6" d="M498 176h15v3h-15zM492 181h15v3h-15zM486 186h28v3h-28zM482 191h28v3h-28z"/></g></g><path fill="url(#T)" d="M478 32h114v10H478z"/><g fill="#fff"><circle cx="487" cy="37" r="2"/><circle cx="496" cy="37" r="2"/><circle cx="505" cy="37" r="2"/></g></g></g><g filter="url(#U)"><animateTransform attributeName="transform" calcMode="linear" dur="7s" keyTimes="0; 0.2; 0.4; 0.83; 1" repeatCount="indefinite" type="translate" values="0,0; -100,0; 50,0; -60,0; 0,0"/><animateTransform additive="sum" attributeName="transform" calcMode="linear" dur="7s" keyTimes="0; 0.2; 0.4; 0.6; 0.83; 1" repeatCount="indefinite" type="translate" values="0,0; 0,-30; 0,-100; 0,-30; 0,-130; 0,0"/><circle cx="342.5" cy="316.5" r="39.5" fill="#EEF5FA" fill-opacity=".43"/><path fill="#569CD6" fill-rule="evenodd" d="M334.681 366.41C310.125 363.099 292 341.749 292 316.269c0-25.387 18.85-46.421 43.311-49.827 0 0 3.268-.334 5.391-.409 2.058-.073 5.264-.001 5.264-.001 26.226 1.609 46.905 23.494 46.905 50.237 0 10.596-3.531 20.403-9.142 28.508l4.602 3.027c3.09 8.546 9.93 15.137 16.518 18.102 6.588 2.964 10.15 3.059 17.904 13.56 7.755 10.47 13.46 17.313 14.028 19.016.567 1.703.22 5.455-3.31 8.987-3.53 3.532-7.282 3.879-9.015 3.312-1.702-.568-8.543-6.276-19.04-14.002-10.496-7.758-10.591-11.258-13.554-17.881-2.963-6.591-9.583-13.434-18.125-16.524l-3.058-4.636c-7.786 5.329-16.707 8.483-25.627 9.051 0 0-3.133.071-5.138 0-2.048-.074-5.233-.379-5.233-.379Zm-26.29-50.173c0-14.412 9.016-26.742 21.719-31.63 0 0 4.792-1.126 7.912-1.545 3.083-.415 7.944-.6 7.944-.6 18.156 1.577 30.261 16.588 30.261 33.775 0 15.831-10.844 29.107-25.501 32.86 0 0-4.642 1.21-7.818 1.293-3.185.083-8.227-.883-8.227-.883-15.477-3.027-26.29-16.777-26.29-33.27Zm119.438 83.065a2.529 2.529 0 0 1 2.521 2.523 2.529 2.529 0 0 1-2.521 2.522 2.53 2.53 0 0 1-2.522-2.522 2.53 2.53 0 0 1 2.522-2.523Z" clip-rule="evenodd"/></g><g><animateTransform attributeName="transform" calcMode="linear" dur="12s" repeatCount="indefinite" type="translate" values="0 0; 3 -2; -2 1; 2 3; -3 -2; 2 -1; -2 3; 3 2; -2 -3; 0 0"/><g clip-path="url(#V)"><g clip-path="url(#W)"><path fill="#000" d="M32 64h79v65H32z"/><path fill="#1C1C1C" d="M32 64h114v156H32z"/><g clip-path="url(#X)"><path fill="#569CD6" d="M36 68h5v1h-5zM40 70h4v1h-4z"/><path fill="#9CDCFE" d="M45 70h3v1h-3z"/><path fill="#CE9178" d="M49 70h18v1H49z"/><path fill="#569CD6" d="M46 72h3v1h-3z"/><path fill="#9CDCFE" d="M50 72h4v1h-4z"/><path fill="#CE9178" d="M55 72h41v1H55z"/><path fill="#569CD6" d="M52 74h3v1h-3z"/><path fill="#9CDCFE" d="M56 74h4v1h-4z"/><path fill="#CE9178" d="M61 74h28v1H61z"/><path fill="#569CD6" d="M58 76h3v1h-3z"/><path fill="#9CDCFE" d="M62 76h3v1h-3z"/><path fill="#CE9178" d="M66 76h26v1H66z"/><g clip-path="url(#Y)"><path fill="#569CD6" d="M58 78h15v3H58z"/></g><path fill="#569CD6" d="M58 80h3v1h-3z"/><path fill="#9CDCFE" d="M61 82h3v1h-3z"/><path fill="#CE9178" d="M65 82h26v1H65z"/><g clip-path="url(#Z)"><path fill="#9CDCFE" d="M61 84h9v3h-9z"/><path fill="#CE9178" d="M71 84h13v1H71z"/></g><path fill="#9CDCFE" d="M61 86h2v1h-2z"/><path fill="#CE9178" d="M64 86h14v1H64z"/><path fill="#569CD6" d="M52 88h3v1h-3z"/><g clip-path="url(#aa)"><path fill="#569CD6" d="M52 90h15v3H52z"/><path fill="#9CDCFE" d="M68 90h4v1h-4z"/><path fill="#CE9178" d="M73 90h28v1H73z"/></g><path fill="#569CD6" d="M58 92h3v1h-3z"/><path fill="#9CDCFE" d="M62 94h3v1h-3z"/><path fill="#CE9178" d="M66 94h26v1H66z"/><path fill="#9CDCFE" d="M62 96h2v1h-2z"/><path fill="#CE9178" d="M65 96h13v1H65z"/><path fill="#9CDCFE" d="M62 98h2v1h-2z"/><path fill="#CE9178" d="M65 98h9v1h-9z"/><path fill="#569CD6" d="M58 100h3v1h-3z"/><path fill="#9CDCFE" d="M62 100h4v1h-4z"/><path fill="#CE9178" d="M67 100h25v1H67z"/><g clip-path="url(#ab)"><path fill="#569CD6" d="M58 102h15v3H58z"/></g><path fill="#569CD6" d="M52 104h3v1h-3z"/><g clip-path="url(#ac)"><path fill="#569CD6" d="M52 106h15v3H52z"/><path fill="#9CDCFE" d="M68 106h4v1h-4z"/><path fill="#CE9178" d="M73 106h29v1H73z"/></g><path fill="#569CD6" d="M58 108h3v1h-3z"/><path fill="#9CDCFE" d="M62 108h3v1h-3z"/><path fill="#CE9178" d="M66 108h26v1H66z"/><path fill="#569CD6" d="M58 110h3v1h-3zM58 112h3v1h-3z"/><path fill="#9CDCFE" d="M62 114h3v1h-3z"/><path fill="#CE9178" d="M66 114h26v1H66z"/><path fill="#9CDCFE" d="M62 116h2v1h-2z"/><path fill="#CE9178" d="M65 116h13v1H65z"/><path fill="#9CDCFE" d="M62 118h2v1h-2z"/><path fill="#CE9178" d="M65 118h14v1H65z"/><path fill="#569CD6" d="M52 120h3v1h-3zM46 122h3v1h-3zM40 124h5v1h-5zM36 126h5v1h-5z"/></g></g><path fill="url(#ad)" d="M32 54h79v10H32z"/><g fill="#fff"><circle cx="41" cy="59" r="2"/><circle cx="50" cy="59" r="2"/><circle cx="59" cy="59" r="2"/></g></g></g><defs><clipPath id="b"><rect width="440" height="280" x="84" y="96" fill="#fff" rx="2"/></clipPath><clipPath id="c"><path fill="#fff" d="M84 106h440v270H84z"/></clipPath><clipPath id="f"><path fill="#fff" d="M109 157h95v187h-95V157Z"/></clipPath><clipPath id="k"><path fill="#fff" d="M214 116h300v250H214z"/></clipPath><clipPath id="m"><rect width="114" height="87" x="40" y="327" fill="#fff" rx="2"/></clipPath><clipPath id="n"><path fill="#fff" d="M40 337h114v77H40z"/></clipPath><clipPath id="o"><path fill="#fff" d="M42 339h107v154H42z"/></clipPath><clipPath id="p"><path fill="#fff" d="M42 345h107v5H42z"/></clipPath><clipPath id="q"><path fill="#fff" d="M42 350h107v5H42z"/></clipPath><clipPath id="r"><path fill="#fff" d="M42 355h107v5H42z"/></clipPath><clipPath id="s"><path fill="#fff" d="M42 360h107v5H42z"/></clipPath><clipPath id="t"><path fill="#fff" d="M42 375h107v5H42z"/></clipPath><clipPath id="u"><path fill="#fff" d="M42 380h107v5H42z"/></clipPath><clipPath id="v"><path fill="#fff" d="M42 385h107v5H42z"/></clipPath><clipPath id="w"><path fill="#fff" d="M42 395h107v5H42z"/></clipPath><clipPath id="x"><path fill="#fff" d="M42 405h107v5H42z"/></clipPath><clipPath id="y"><path fill="#fff" d="M42 410h107v5H42z"/></clipPath><clipPath id="A"><rect width="114" height="166" x="478" y="32" fill="#fff" rx="2"/></clipPath><clipPath id="B"><path fill="#fff" d="M478 42h114v156H478z"/></clipPath><clipPath id="C"><path fill="#fff" d="M480 44h107v154H480z"/></clipPath><clipPath id="D"><path fill="#fff" d="M480 50h107v5H480z"/></clipPath><clipPath id="E"><path fill="#fff" d="M480 55h107v5H480z"/></clipPath><clipPath id="F"><path fill="#fff" d="M480 60h107v5H480z"/></clipPath><clipPath id="G"><path fill="#fff" d="M480 65h107v5H480z"/></clipPath><clipPath id="H"><path fill="#fff" d="M480 80h107v5H480z"/></clipPath><clipPath id="I"><path fill="#fff" d="M480 85h107v5H480z"/></clipPath><clipPath id="J"><path fill="#fff" d="M480 90h107v5H480z"/></clipPath><clipPath id="K"><path fill="#fff" d="M480 100h107v5H480z"/></clipPath><clipPath id="L"><path fill="#fff" d="M480 110h107v5H480z"/></clipPath><clipPath id="M"><path fill="#fff" d="M480 115h107v5H480z"/></clipPath><clipPath id="N"><path fill="#fff" d="M480 125h107v5H480z"/></clipPath><clipPath id="O"><path fill="#fff" d="M480 140h107v5H480z"/></clipPath><clipPath id="P"><path fill="#fff" d="M480 145h107v5H480z"/></clipPath><clipPath id="Q"><path fill="#fff" d="M480 160h107v5H480z"/></clipPath><clipPath id="R"><path fill="#fff" d="M480 165h107v5H480z"/></clipPath><clipPath id="S"><path fill="#fff" d="M480 170h107v5H480z"/></clipPath><clipPath id="V"><rect width="79" height="75" x="32" y="54" fill="#fff" rx="2"/></clipPath><clipPath id="W"><path fill="#fff" d="M32 64h79v65H32z"/></clipPath><clipPath id="X"><path fill="#fff" d="M34 66h75v154H34z"/></clipPath><clipPath id="Y"><path fill="#fff" d="M34 77h75v2H34z"/></clipPath><clipPath id="Z"><path fill="#fff" d="M34 83h75v2H34z"/></clipPath><clipPath id="aa"><path fill="#fff" d="M34 89h75v2H34z"/></clipPath><clipPath id="ab"><path fill="#fff" d="M34 101h75v2H34z"/></clipPath><clipPath id="ac"><path fill="#fff" d="M34 105h75v2H34z"/></clipPath><linearGradient id="l" x1="84" x2="524" y1="101" y2="101" gradientUnits="userSpaceOnUse"><stop stop-color="#18A5D7"/><stop offset="1" stop-color="#9537FC"/></linearGradient><linearGradient id="z" x1="40" x2="154" y1="332" y2="332" gradientUnits="userSpaceOnUse"><stop stop-color="#18A5D7"/><stop offset="1" stop-color="#9537FC"/></linearGradient><linearGradient id="T" x1="478" x2="592" y1="37" y2="37" gradientUnits="userSpaceOnUse"><stop stop-color="#18A5D7"/><stop offset="1" stop-color="#9537FC"/></linearGradient><linearGradient id="ad" x1="32" x2="111" y1="59" y2="59" gradientUnits="userSpaceOnUse"><stop stop-color="#18A5D7"/><stop offset="1" stop-color="#9537FC"/></linearGradient><filter id="a" width="448" height="288" x="80" y="96" color-interpolation-filters="sRGB" filterUnits="userSpaceOnUse"><feFlood flood-opacity="0" result="BackgroundImageFix"/><feColorMatrix in="SourceAlpha" result="hardAlpha" values="0 0 0 0 0 0 0 0 0 0 0 0 0 0 0 0 0 0 127 0"/><feOffset dy="4"/><feGaussianBlur stdDeviation="2"/><feComposite in2="hardAlpha" operator="out"/><feColorMatrix values="0 0 0 0 0 0 0 0 0 0 0 0 0 0 0 0 0 0 0.25 0"/><feBlend in2="BackgroundImageFix" result="effect1_dropShadow_289_9"/><feBlend in="SourceGraphic" in2="effect1_dropShadow_289_9" result="shape"/></filter><filter id="U" width="153" height="153" x="288" y="266" color-interpolation-filters="sRGB" filterUnits="userSpaceOnUse"><feFlood flood-opacity="0" result="BackgroundImageFix"/><feColorMatrix in="SourceAlpha" result="hardAlpha" values="0 0 0 0 0 0 0 0 0 0 0 0 0 0 0 0 0 0 127 0"/><feOffset dy="4"/><feGaussianBlur stdDeviation="2"/><feComposite in2="hardAlpha" operator="out"/><feColorMatrix values="0 0 0 0 0 0 0 0 0 0 0 0 0 0 0 0 0 0 0.25 0"/><feBlend in2="BackgroundImageFix" result="effect1_dropShadow_289_9"/><feBlend in="SourceGraphic" in2="effect1_dropShadow_289_9" result="shape"/></filter></defs></svg>